<svg xmlns="http://www.w3.org/2000/svg" xmlns:xlink="http://www.w3.org/1999/xlink" viewBox="0 0 400 300" width="406" height="306" class="illustration styles_illustrationTablet__1DWOa"><defs><linearGradient id="linear-gradient" x1="106.34" y1="185.36" x2="81.12" y2="166.69" gradientUnits="userSpaceOnUse"><stop offset="0" stop-color="#fff" stop-opacity="0"></stop><stop offset="0.99" stop-color="gray"></stop></linearGradient><linearGradient id="linear-gradient-2" x1="348.75" y1="201.89" x2="323.27" y2="183.02" xlink:href="#linear-gradient"></linearGradient><linearGradient id="linear-gradient-3" x1="249.53" y1="216.05" x2="186.97" y2="169.73" xlink:href="#linear-gradient"></linearGradient></defs><title>PP</title><g style="isolation: isolate;"><g id="Layer_2" data-name="Layer 2"><path d="M194.28,288.83,14.56,182.61c-5.72-3.21-10.63-8.49-5.05-11.94l180.37-104c2.71-1.68,6.82-2.78,9.57-1.18L388.11,175c5.72,3.32,6.75,12.6,1,15.93L218,288.66A23.9,23.9,0,0,1,194.28,288.83Z" fill="#16a79e"></path><path d="M119.89,181.75c-2.6.8-2.35,3.48-5,4-1.64.33-2.1,4.12-3.75,4.24l-11.53,8.77-34.21-21.3L97.45,159l27.6,17.73C120.76,179.92,124.92,180.2,119.89,181.75Z" opacity="0.91" fill="url(#linear-gradient)" style="mix-blend-mode: multiply;"></path><path d="M362.44,198.24c-2.63.81-2.37,3.51-5.08,4.06-1.65.33-2.12,4.16-3.79,4.29l-11.65,8.86-34.57-21.53,32.42-18.62,27.89,17.92C363.32,196.39,367.52,196.68,362.44,198.24Z" opacity="0.91" fill="url(#linear-gradient-2)" style="mix-blend-mode: multiply;"></path><path d="M283.15,207.08c-6.46,2-5.83,8.63-12.46,10-4.06.82-5.21,10.22-9.3,10.53l-28.61,21.76L147.9,196.48l79.59-45.72,68.48,44C285.31,202.56,295.63,203.26,283.15,207.08Z" opacity="0.91" fill="url(#linear-gradient-3)" style="mix-blend-mode: multiply;"></path><path d="M251.68,144.82c-14.89,21.15-39,29.53-63.68,31.91v-2.14c0-.71-1.24-.78-1.21,0s0,1.5,0,2.25a187.73,187.73,0,0,1-22.68.55.56.56,0,0,0-.34-.12c-11-.14-17.68-9.44-21.8-18.87a31.33,31.33,0,0,0,4.65,2c6.92,2.39,15.63,3.87,22.85,2.14,4.94-1.18,12.61-6.05,8.3-11.88-2.31-3.12-6.62-4.94-10-6.67a108.78,108.78,0,0,0-14.43-6.16c-.74-.26-1.05.91-.32,1.17,7.3,2.54,15.06,5.68,21.39,10.22,2.51,1.8,4.23,4.14,2.56,7.22-1.15,2.13-3.44,3.44-5.64,4.27a25,25,0,0,1-10.54,1.19,59.8,59.8,0,0,1-11-1.8,29.18,29.18,0,0,1-8.58-3.41c-.62-1.53-1.18-3-1.68-4.51-.29-.85-.55-1.72-.79-2.6,1.55-2.2,4.81-3.91,7-4.61a36,36,0,0,1,10.7-1.25.61.61,0,0,0,0-1.21c-6.13,0-13.84.56-18.1,5.62-2.48-10.25-1.56-22.12,8.21-28.2.66-.41.05-1.46-.61-1-10.54,6.56-11.42,19.52-8.52,30.5-2,3.31-.09,6,2.72,7.92,3.78,9.2,9.84,18.58,19.63,20.7a.58.58,0,0,0,.55.43,202.23,202.23,0,0,0,20.82,0l-.05.09c-.83,2.48-1.8,12.16,3.48,10.85,1.9-.47,2.33-2.86,2.63-4.45a43.18,43.18,0,0,0,.71-7c25.11-2.41,49.6-11,64.75-32.51C253.18,144.79,252.13,144.19,251.68,144.82ZM139.2,155a4,4,0,0,1-1.18-3.72c.13.42.25.84.39,1.26.29.85.6,1.72.93,2.6ZM186,185.09a5.76,5.76,0,0,1-.47,1.68c-1.09,1.91-3.34.35-3.75-1.27a12,12,0,0,1,.53-6.67.52.52,0,0,0,0-.47q2.25-.14,4.49-.34A40.56,40.56,0,0,1,186,185.09Z" fill="#606060"></path><path d="M153.38,127.9a3.83,3.83,0,0,0-4.89-.66.6.6,0,0,0-.2.25.53.53,0,0,0-.28.17,3.59,3.59,0,0,0-.26.37h-.92a.61.61,0,0,0,0,1.21h.45a3.88,3.88,0,0,0,.76,3.3,3.37,3.37,0,0,0,4.75.41l.13-.12a3.41,3.41,0,0,0,.58-4.79Zm-1.1,3.87a2.18,2.18,0,0,1-3.32,0,2.58,2.58,0,0,1,0-3.21.62.62,0,0,0,.09-.17l.14-.06C151.35,126.73,154.42,129.64,152.28,131.77Z" fill="#606060"></path><path d="M169.42,127.2a.61.61,0,1,0,.53.53A.61.61,0,0,0,169.42,127.2Z" fill="#606060"></path><path d="M165.88,179.31c-.28-.72-1.45-.4-1.17.32,1.17,3,1.95,10.25-2,11.52-1.46.47-2-.37-2.9-1.41a14.47,14.47,0,0,1-1.79-2.48,15.38,15.38,0,0,1-1.84-5.55c-.11-.77-1.28-.44-1.17.32a16.17,16.17,0,0,0,3.17,7.64c1.05,1.36,3,3.82,5,3.14s2.82-3.5,3.26-5.21A13.36,13.36,0,0,0,165.88,179.31Z" fill="#606060"></path><path d="M233.85,164.72c-.17-.76-1.34-.44-1.17.32a12.64,12.64,0,0,1-2.15,10.26,10.11,10.11,0,0,1-3.7,3.37c-4.2,1.85-4.9-3.91-5.17-6.5-.08-.77-1.29-.78-1.21,0,.25,2.32.72,6.4,2.77,8,1.87,1.43,4.4-.37,5.89-1.58A14,14,0,0,0,233.85,164.72Z" fill="#606060"></path><path d="M172.62,131.6c-1.57-2.11-4.61-2.2-7-2-.77.05-.78,1.26,0,1.21a17.76,17.76,0,0,1,2.29,0c-.46,1.74-.74,4,.42,5.52a2.6,2.6,0,0,0,4.15,0A4,4,0,0,0,172.62,131.6Zm-.8,3.5c-.72,1.48-2.4,1.13-2.87-.34a7,7,0,0,1,.19-3.87,5.11,5.11,0,0,1,1.42.52,2.74,2.74,0,0,1,1.27,3.66v0Z" fill="#606060"></path><path d="M212.2,103l-2,.94a32.17,32.17,0,0,0-3.13-3.89c-.66-.65-1.19-1.23-2.16-1.19-1.18,0-2.33.92-3.36,1.42l-6.42,3.12-24.63,12c-.66.32-.16,1.25.49,1.08a.59.59,0,0,0,.23.73,12.84,12.84,0,0,0,6.9,2.14.61.61,0,0,0,0-1.21,11.62,11.62,0,0,1-6.28-2h-.07l19.7-9.58,9.64-4.69a14.27,14.27,0,0,1,2.68-1.3c1.47-.3,2.14.25,3.17,1.29a23.54,23.54,0,0,1,2.16,2.63q-14.29,6.83-29.17,12.29c-.73.27-.41,1.44.32,1.17q15.09-5.51,29.58-12.47l.27.35-32.73,18a.59.59,0,1,0,.61,1q16.68-9.1,33.28-18.31a.62.62,0,0,0,.12-1l-.49-.65,1.86-.88C213.39,103.66,212.9,102.62,212.2,103Z" fill="#619eb0"></path><path d="M158.92,147.09a.61.61,0,0,0-1.21,0,3.46,3.46,0,0,0,.83,2.11.59.59,0,0,0-.84.53c0,.85-.27,2.24.5,2.84a1.65,1.65,0,0,0,1.93-.08C162.28,150.85,158.91,148.67,158.92,147.09Zm.13,4.53c-.23-.08-.13-1.6-.14-1.89h0l.19.27c.18.09.92,1.9-.05,1.58Z" fill="#619eb0"></path><path d="M179.37,197.32s7,15.37,16.47,16.35,9.55-27.75,9.55-27.75S185,174.74,179.37,197.32Z" fill="#30f538"></path><path d="M230.37,164s7,15.37,16.47,16.35,9.55-27.75,9.55-27.75S236,141.39,230.37,164Z" fill="#30f538"></path><path d="M135.85,177.46s3.74,16.46,12.82,19.35,15-25.25,15-25.25S145.92,156.49,135.85,177.46Z" fill="#30f538"></path><path d="M179.37,197.32s7,15.37,16.47,16.35,9.55-27.75,9.55-27.75S185,174.74,179.37,197.32Z" fill="#3099aa" opacity="0.54"></path><path d="M230.37,164s7,15.37,16.47,16.35,9.55-27.75,9.55-27.75S236,141.39,230.37,164Z" fill="#3099aa" opacity="0.54"></path><path d="M135.85,177.46s3.74,16.46,12.82,19.35,15-25.25,15-25.25S145.92,156.49,135.85,177.46Z" fill="#3099aa" opacity="0.54"></path><path d="M130.78,168.28c7.81,22.24,33,31.72,55.07,31.34,28.15-.49,56.56-19,69-44.22,11.9-24.06,5.67-51.58-17.35-66.12C203.34,67.7,152.35,87.23,135.33,122c-6.7,13.68-9.69,31-4.78,45.69Z" fill="#30f538"></path><path d="M166.49,111l13.46,5.7h0s16.33-14.63,31.81-20.55l-14.48-4.92S179.28,99,166.49,111Z" fill="#3099aa" opacity="0.54"></path><polygon points="197.28 91.25 196.89 103.99 201.24 101.32 211.76 96.17 197.28 91.25" fill="#3099aa" opacity="0.76"></polygon><path d="M237.9,89.69c-10.91-6.89-23.53-9.58-36.21-8.94a54.39,54.39,0,0,1,29.88,19.38c9.05,11.66,13.32,25.6,10.57,40.26-2.79,14.85-11.24,28.48-21.9,39A72.42,72.42,0,0,1,182.57,199c-1.42.27-2.85.51-4.3.72a75.16,75.16,0,0,0,7.93.29c28.15-.49,56.56-19,69-44.22C267.15,131.74,260.93,104.23,237.9,89.69Z" fill="#3099aa" opacity="0.54"></path><ellipse cx="166.49" cy="155.25" rx="2.66" ry="3.72" fill="#1b3f60"></ellipse><ellipse cx="150.39" cy="165.26" rx="9.9" ry="12.5" transform="translate(-67.81 213.36) rotate(-60.13)" fill="#30f538"></ellipse><ellipse cx="150.39" cy="165.26" rx="9.9" ry="12.5" transform="translate(-67.81 213.36) rotate(-60.13)" fill="#3099aa" opacity="0.54"></ellipse><ellipse cx="148.17" cy="166.9" rx="9.9" ry="12.5" transform="translate(-70.35 212.27) rotate(-60.13)" fill="#30f538"></ellipse><ellipse cx="148.17" cy="166.9" rx="9.9" ry="12.5" transform="translate(-70.35 212.27) rotate(-60.13)" fill="#fff" opacity="0.56"></ellipse><circle cx="152.13" cy="168.24" r="2.38" fill="#1b3f60"></circle><ellipse cx="143.63" cy="146.56" rx="2.66" ry="3.72" fill="#1b3f60"></ellipse><circle cx="143.63" cy="166.32" r="2.38" fill="#1b3f60"></circle><path d="M138.31,119.3s.81-17,3.49-16.79,8,16.12,8,16.79S144.08,119.07,138.31,119.3Z" fill="#30f538"></path><path d="M181.47,132.77s9-14.8,12.07-13.47,1.35,20.64,1.35,20.64S188.84,134.51,181.47,132.77Z" fill="#30f538"></path><path d="M138.31,119.3s.81-17,3.49-16.79,8,16.12,8,16.79S144.08,119.07,138.31,119.3Z" fill="#fff" opacity="0.56"></path><path d="M181.47,132.77s9-14.8,12.07-13.47,1.35,20.64,1.35,20.64S188.84,134.51,181.47,132.77Z" fill="#fff" opacity="0.56"></path><path d="M62.47,133.21a40.24,40.24,0,0,1,14.37-2.7c7.85.06-9.32,14.08-9.32,14.08" fill="#f2ae16"></path><ellipse cx="73.41" cy="155.1" rx="22.22" ry="24.33" transform="translate(-12.92 6.8) rotate(-4.88)" fill="#f2ae16"></ellipse><ellipse cx="76.74" cy="154.82" rx="22.22" ry="24.33" transform="translate(-12.88 7.08) rotate(-4.88)" fill="#ffb92c"></ellipse><ellipse cx="76.74" cy="154.82" rx="19.47" ry="21.32" transform="translate(-12.88 7.08) rotate(-4.88)" fill="none" stroke="#f7931e" stroke-miterlimit="10"></ellipse><path d="M85.9,152.82c-2.26-1.9-5.3-1.8-8-1.07q-1.55-3.24-3.15-6.45a9,9,0,0,1,1.87-.34c1.93-.14,1.47-3.1-.44-3a9.44,9.44,0,0,0-2.75.67c-.6-1.18-1.19-2.37-1.79-3.55-.88-1.71-3.62-.5-2.74,1.22.64,1.25,1.27,2.51,1.9,3.76-3.55,2.52-5.94,6.9-3.23,10.86,2,2.92,5.2,1.9,8,.84l.83-.33q1.46,3.08,2.87,6.18a25.13,25.13,0,0,1-4,.57c-1.93.12-1.47,3.08.44,3a23.43,23.43,0,0,0,4.75-.78c.32.72.65,1.43,1,2.14a1.5,1.5,0,0,0,2.74-1.22c-.29-.66-.6-1.32-.9-2a9.73,9.73,0,0,0,3.73-3A5.46,5.46,0,0,0,85.9,152.82ZM73,153.56c-2.91,0-4.06-1.88-2.92-4.37a6.79,6.79,0,0,1,2-2.52q1.53,3.08,3,6.19A6.06,6.06,0,0,1,73,153.56Zm11.52,5a5.46,5.46,0,0,1-2.5,2.1q-1.41-3.1-2.87-6.18c.26-.06.52-.13.79-.16C82.3,154,86.46,155.15,84.56,158.57Z" fill="#ea8b24"></path><path d="M57.13,137.52s.49,7.6-5.42,8.07c0,0,5,2.08,5.84,6.06,0,0,.62-5.56,5.7-6.13A7.82,7.82,0,0,1,57.13,137.52Z" fill="#fff"></path><ellipse cx="325.18" cy="185.02" rx="23.63" ry="13.84" fill="#ff912e"></ellipse><polygon points="301.55 185.02 301.55 181.02 304.12 184.22 301.55 185.02" fill="#e0944f"></polygon><polygon points="348.81 181.02 348.81 185.02 345.81 185.02 348 181.81 348.81 181.02" fill="#e0944f"></polygon><ellipse cx="325.18" cy="181.02" rx="23.63" ry="13.84" fill="#ffb92c"></ellipse><path d="M337.16,179.17a1.85,1.85,0,0,1,.19,1l-.09.37-4.31,0a2,2,0,0,0,.08-.37,1.61,1.61,0,0,0-.26-.79,2.36,2.36,0,0,0-1-1,4.72,4.72,0,0,0-2-.53,4.37,4.37,0,0,0-1.93.3q-.91.39-.7,1a3.74,3.74,0,0,0,.92,1.35,16.42,16.42,0,0,1,1.31,1.5,1.57,1.57,0,0,1,.23,1.66,3.72,3.72,0,0,1-2.1,1.63,12.41,12.41,0,0,1-4.57,1,14.62,14.62,0,0,1-5-.71l-2.48,1.07-2.91-1.42,2.41-1a5.44,5.44,0,0,1-1.16-1,3.07,3.07,0,0,1-.57-1,3.17,3.17,0,0,1-.15-.78,1.69,1.69,0,0,1,0-.54l.09-.21h4.31a3.44,3.44,0,0,0-.1.44,1.84,1.84,0,0,0,.35,1,3.24,3.24,0,0,0,1.43,1.22,6.13,6.13,0,0,0,2.51.65,5.22,5.22,0,0,0,2.31-.37q.9-.39.67-1a3.73,3.73,0,0,0-1-1.35,13.81,13.81,0,0,1-1.32-1.5,1.55,1.55,0,0,1-.18-1.67,4,4,0,0,1,2.2-1.66,11.87,11.87,0,0,1,4.39-.86,12.66,12.66,0,0,1,4.68.73l2.48-1.06,2.71,1.47-2.48,1.07A3.53,3.53,0,0,1,337.16,179.17Z" fill="#ea8b24"></path><ellipse cx="325.22" cy="181.19" rx="19.83" ry="11.62" fill="none" stroke="#f7931e" stroke-miterlimit="10" stroke-width="2"></ellipse><ellipse cx="316.88" cy="177.29" rx="23.63" ry="13.84" fill="#ff912e"></ellipse><polygon points="293.25 177.29 293.25 173.29 295.82 176.49 293.25 177.29" fill="#e0944f"></polygon><polygon points="340.51 173.29 340.51 177.29 337.51 177.29 339.7 174.08 340.51 173.29" fill="#e0944f"></polygon><ellipse cx="316.88" cy="173.29" rx="23.63" ry="13.84" fill="#ffb92c"></ellipse><path d="M328.86,171.44a1.85,1.85,0,0,1,.19,1l-.09.37-4.31,0a2,2,0,0,0,.08-.37,1.61,1.61,0,0,0-.26-.79,2.36,2.36,0,0,0-1-1,4.72,4.72,0,0,0-2-.53,4.37,4.37,0,0,0-1.93.3q-.91.39-.7,1a3.74,3.74,0,0,0,.92,1.35,16.42,16.42,0,0,1,1.31,1.5,1.57,1.57,0,0,1,.23,1.66,3.72,3.72,0,0,1-2.1,1.63,12.41,12.41,0,0,1-4.57,1,14.62,14.62,0,0,1-5-.71L307.09,179l-2.91-1.42,2.41-1a5.44,5.44,0,0,1-1.16-1,3.07,3.07,0,0,1-.57-1,3.17,3.17,0,0,1-.15-.78,1.69,1.69,0,0,1,0-.54l.09-.21h4.31a3.44,3.44,0,0,0-.1.44,1.84,1.84,0,0,0,.35,1,3.24,3.24,0,0,0,1.43,1.22,6.13,6.13,0,0,0,2.51.65,5.22,5.22,0,0,0,2.31-.37q.9-.39.67-1a3.73,3.73,0,0,0-1-1.35,13.81,13.81,0,0,1-1.32-1.5,1.55,1.55,0,0,1-.18-1.67,4,4,0,0,1,2.2-1.66,11.87,11.87,0,0,1,4.39-.86,12.66,12.66,0,0,1,4.68.73l2.48-1.06,2.71,1.47-2.48,1.07A3.53,3.53,0,0,1,328.86,171.44Z" fill="#ea8b24"></path><ellipse cx="316.92" cy="173.46" rx="19.83" ry="11.62" fill="none" stroke="#f7931e" stroke-miterlimit="10" stroke-width="2"></ellipse><ellipse cx="320.71" cy="169.18" rx="23.63" ry="13.84" fill="#ff912e"></ellipse><polygon points="297.09 169.18 297.09 165.18 299.66 168.38 297.09 169.18" fill="#e0944f"></polygon><polygon points="344.34 165.18 344.34 169.18 341.34 169.18 343.54 165.97 344.34 165.18" fill="#e0944f"></polygon><ellipse cx="320.71" cy="165.18" rx="23.63" ry="13.84" fill="#ffb92c"></ellipse><path d="M332.7,163.33a1.85,1.85,0,0,1,.19,1l-.09.37-4.31,0a2,2,0,0,0,.08-.37,1.61,1.61,0,0,0-.26-.79,2.36,2.36,0,0,0-1-1,4.72,4.72,0,0,0-2-.53,4.37,4.37,0,0,0-1.93.3q-.91.39-.7,1a3.74,3.74,0,0,0,.92,1.35,16.42,16.42,0,0,1,1.31,1.5,1.57,1.57,0,0,1,.23,1.66,3.72,3.72,0,0,1-2.1,1.63,12.41,12.41,0,0,1-4.57,1,14.62,14.62,0,0,1-5-.71l-2.48,1.07L308,169.5l2.41-1a5.44,5.44,0,0,1-1.16-1,3.07,3.07,0,0,1-.57-1,3.17,3.17,0,0,1-.15-.78,1.69,1.69,0,0,1,0-.54l.09-.21H313a3.44,3.44,0,0,0-.1.44,1.84,1.84,0,0,0,.35,1,3.24,3.24,0,0,0,1.43,1.22,6.13,6.13,0,0,0,2.51.65,5.22,5.22,0,0,0,2.31-.37q.9-.39.67-1a3.73,3.73,0,0,0-1-1.35,13.81,13.81,0,0,1-1.32-1.5,1.55,1.55,0,0,1-.18-1.67,4,4,0,0,1,2.2-1.66,11.87,11.87,0,0,1,4.39-.86,12.66,12.66,0,0,1,4.68.73l2.48-1.06,2.71,1.47L331.67,162A3.53,3.53,0,0,1,332.7,163.33Z" fill="#ea8b24"></path><ellipse cx="320.76" cy="165.35" rx="19.83" ry="11.62" fill="none" stroke="#f7931e" stroke-miterlimit="10" stroke-width="2"></ellipse><ellipse cx="323.29" cy="158.96" rx="23.63" ry="13.84" fill="#ff912e"></ellipse><polygon points="299.66 158.96 299.66 154.96 302.23 158.16 299.66 158.96" fill="#e0944f"></polygon><polygon points="346.91 154.96 346.91 158.96 343.92 158.96 346.11 155.75 346.91 154.96" fill="#e0944f"></polygon><ellipse cx="323.29" cy="154.96" rx="23.63" ry="13.84" fill="#ffb92c"></ellipse><path d="M335.27,153.11a1.85,1.85,0,0,1,.19,1l-.09.37-4.31,0a2,2,0,0,0,.08-.37,1.61,1.61,0,0,0-.26-.79,2.36,2.36,0,0,0-1-1,4.72,4.72,0,0,0-2-.53,4.37,4.37,0,0,0-1.93.3q-.91.39-.7,1a3.74,3.74,0,0,0,.92,1.35,16.42,16.42,0,0,1,1.31,1.5,1.57,1.57,0,0,1,.23,1.66,3.72,3.72,0,0,1-2.1,1.63,12.41,12.41,0,0,1-4.57,1,14.62,14.62,0,0,1-5-.71l-2.48,1.07-2.91-1.42,2.41-1a5.44,5.44,0,0,1-1.16-1,3.07,3.07,0,0,1-.57-1,3.17,3.17,0,0,1-.15-.78,1.69,1.69,0,0,1,0-.54l.09-.21h4.31a3.44,3.44,0,0,0-.1.44,1.84,1.84,0,0,0,.35,1,3.24,3.24,0,0,0,1.43,1.22,6.13,6.13,0,0,0,2.51.65,5.22,5.22,0,0,0,2.31-.37q.9-.39.67-1a3.73,3.73,0,0,0-1-1.35,13.81,13.81,0,0,1-1.32-1.5,1.55,1.55,0,0,1-.18-1.67,4,4,0,0,1,2.2-1.66,11.87,11.87,0,0,1,4.39-.86,12.66,12.66,0,0,1,4.68.73l2.48-1.06,2.71,1.47-2.48,1.07A3.53,3.53,0,0,1,335.27,153.11Z" fill="#ea8b24"></path><ellipse cx="323.33" cy="155.13" rx="19.83" ry="11.62" fill="none" stroke="#f7931e" stroke-miterlimit="10" stroke-width="2"></ellipse><ellipse cx="316.88" cy="150.08" rx="23.63" ry="13.84" fill="#ff912e"></ellipse><polygon points="293.25 150.08 293.25 146.08 295.82 149.28 293.25 150.08" fill="#e0944f"></polygon><polygon points="340.51 146.08 340.51 150.08 337.51 150.08 339.7 146.87 340.51 146.08" fill="#e0944f"></polygon><ellipse cx="316.88" cy="146.08" rx="23.63" ry="13.84" fill="#ffb92c"></ellipse><path d="M328.86,144.23a1.85,1.85,0,0,1,.19,1l-.09.37-4.31,0a2,2,0,0,0,.08-.37,1.61,1.61,0,0,0-.26-.79,2.36,2.36,0,0,0-1-1,4.72,4.72,0,0,0-2-.53,4.37,4.37,0,0,0-1.93.3q-.91.39-.7,1a3.74,3.74,0,0,0,.92,1.35,16.42,16.42,0,0,1,1.31,1.5,1.57,1.57,0,0,1,.23,1.66,3.72,3.72,0,0,1-2.1,1.63,12.41,12.41,0,0,1-4.57,1,14.62,14.62,0,0,1-5-.71l-2.48,1.07-2.91-1.42,2.41-1a5.44,5.44,0,0,1-1.16-1,3.07,3.07,0,0,1-.57-1,3.17,3.17,0,0,1-.15-.78,1.69,1.69,0,0,1,0-.54l.09-.21h4.31a3.44,3.44,0,0,0-.1.44,1.84,1.84,0,0,0,.35,1,3.24,3.24,0,0,0,1.43,1.22,6.13,6.13,0,0,0,2.51.65,5.22,5.22,0,0,0,2.31-.37q.9-.39.67-1a3.73,3.73,0,0,0-1-1.35,13.81,13.81,0,0,1-1.32-1.5,1.55,1.55,0,0,1-.18-1.67,4,4,0,0,1,2.2-1.66,11.87,11.87,0,0,1,4.39-.86,12.66,12.66,0,0,1,4.68.73l2.48-1.06,2.71,1.47-2.48,1.07A3.53,3.53,0,0,1,328.86,144.23Z" fill="#ea8b24"></path><ellipse cx="316.92" cy="146.25" rx="19.83" ry="11.62" fill="none" stroke="#f7931e" stroke-miterlimit="10" stroke-width="2"></ellipse><path d="M296.67,134.3s.6,9.2-6.56,9.76c0,0,6.06,2.51,7.06,7.33,0,0,.75-6.72,6.9-7.41A9.46,9.46,0,0,1,296.67,134.3Z" fill="#fff"></path><path d="M225.81,96.23l30.6,129.27c.74,3.11-4.06,4.44-4.79,1.32L221,97.55c-.74-3.11,4.06-4.44,4.79-1.32Z" fill="#f2f2f2"></path><path d="M197.09,111.53l30.6,129.27c.74,3.11-4.06,4.44-4.79,1.32L192.3,112.85c-.74-3.11,4.06-4.44,4.79-1.32Z" fill="#f2f2f2"></path><path d="M229,116.62l-28.71,16c-2.8,1.56-5.3-2.73-2.51-4.29l28.71-16c2.8-1.56,5.3,2.73,2.51,4.29Z" fill="#f2f2f2"></path><path d="M232,134.59,204.45,150c-2.8,1.56-5.3-2.73-2.51-4.29l27.54-15.38c2.8-1.56,5.3,2.73,2.51,4.29Z" fill="#f2f2f2"></path><path d="M235.32,149.15l-27.5,15.36c-2.8,1.56-5.3-2.73-2.51-4.29l27.5-15.36c2.8-1.56,5.3,2.73,2.51,4.29Z" fill="#f2f2f2"></path><path d="M239.65,164.8,212.4,180c-2.8,1.56-5.3-2.73-2.51-4.29l27.25-15.22c2.8-1.56,5.3,2.73,2.51,4.29Z" fill="#f2f2f2"></path><path d="M243.4,179.13l-27.3,15.25c-2.8,1.56-5.3-2.73-2.51-4.29l27.3-15.25c2.8-1.56,5.3,2.73,2.51,4.29Z" fill="#f2f2f2"></path><path d="M247.56,195.79l-28.71,16c-2.8,1.56-5.3-2.73-2.51-4.29l28.71-16c2.8-1.56,5.3,2.73,2.51,4.29Z" fill="#f2f2f2"></path><path d="M207.36,152.1a31.44,31.44,0,0,1,5.35-.07s.32-5.85.22-6h4.32s1.31,8.56,1.4,9.42c.16,1.57-1.72,2.26-2.16,2.25a7.68,7.68,0,0,1-.93-.27,13,13,0,0,0,0-2.48c-.06-.37-.17-.63-.54-.73a5.92,5.92,0,0,0-2.52.5c-.78.23-1.55.5-2.33.73-1.85-.74-3.42-1.47-3.58-1.82C206.19,152.75,205.81,152.58,207.36,152.1Z" fill="#ffb3a6"></path><path d="M205.9,152.54l.09-.13c.31-.37,1.2-.43,1.62-.48a21.11,21.11,0,0,1,5.1.12s-4.09-.13-4.17.61a1.93,1.93,0,0,0,.58,1.62c1.84,1.32,4.3-.6,5.86-1.48l2.91-1.63.45,2.46a18.49,18.49,0,0,1,.36,3.41c-.17.37-1.88,1.51-2.28,1.36s-1.66-.74-1.66-.74l-.08-3s-2.4,1.35-3.62,1.17C210.14,155.65,205,154,205.9,152.54Z" fill="#56403d"></path><path d="M220.49,139.8l.34,6.67a16.26,16.26,0,0,1-10.38,1.13c-.72-3.83-2.08-11.47-1.93-14,.2-3.47-.54-7.1,4.11-9.39,3.57-1.75,14.46,2.47,14.46,2.47l8.19,14C224.81,144.79,220.49,139.8,220.49,139.8Z" fill="#999a1c"></path><path d="M241.55,189.16c.67-.31,1.66-.6,2.08-1.27a4.07,4.07,0,0,0,.21-2.41q-.08-1.15-.24-2.28a.38.38,0,0,0,.11-.29,13.78,13.78,0,0,0-.21-1.86l3.1-.63a56.74,56.74,0,0,1,1.92,5.82c0,.62-2.58,5-4.06,5.42s-5.82-.44-6.24-1l0-.05C239.33,190.15,240.45,189.67,241.55,189.16Z" fill="#ffb3a6"></path><path d="M245.64,186.61s-1.1,5.28-1.66,5.68-7.06-1-6.24-2.25c.52-.83,4.32-1.21,4.64-1.35,0,0-1.93.86-1.89,1.18s2.67,1.22,2.77,1,2.37-5,2.37-5l2.48-1.18,2.61,4.48-1.71,1s-.4,1.49-.58,1.5a20.89,20.89,0,0,1-1.92-2.46,7,7,0,0,1-.43,1.93c-.24.21-2.14,2.15-3.23.93l1.55-2.16" fill="#56403d"></path><path d="M227.72,137.32c-2-6.55-2.05-5.38-3.36-10.79l13.11-3.44c6.68,10,12.89,58.37,12.89,58.37s-6.47,5.21-12.07,3.61c0,0-7.57-39.89-7.59-39.93C229.6,142.42,229.56,141.91,227.72,137.32Z" fill="#999a1c"></path><path d="M229.8,142.79a13.81,13.81,0,0,0,5.49-2.17l.71,30Z" fill="#7a770e"></path><path d="M230.75,106s7.25-16.34,8.08-17.38-1-6.35.15-6.29,2.5,2.71,2.5,2.71,5-3.61,6.77-2.49-5.58,8.57-5.58,8.57l-6.11,20.24" fill="#ffb3a6"></path><path d="M218.05,102.69s-16.51-6.84-17.83-7-3.66-5.29-4.44-4.46,0,3.69,0,3.69-6.1.82-6.62,2.86,9.95,2.37,9.95,2.37l18.37,10.46" fill="#ffb3a6"></path><polyline points="230.51 100.94 236 96.09 239.64 108.01 235.08 114.71" fill="#ffd400"></polyline><path d="M221.94,103.84h.51c2.63,0,5.55-3.58,5.55-3.58s1-8.2,5.62-1.6c3.49,4.93,4.41,18.91,4.65,25.67a13.53,13.53,0,0,1-6.6,2.1,28,28,0,0,1-4.57.22,6.77,6.77,0,0,1-2.7-.69l-2-10.92A110.67,110.67,0,0,0,221.94,103.84Z" fill="#ffd400"></path><path d="M224.69,91.33s-4.49,6.29-1.27,8.67,6.41-.38,6.82-1.15S231.48,91.77,224.69,91.33Z" fill="#ffb3a6"></path><path d="M224.57,90.27a7.41,7.41,0,0,1,6.2,0,9,9,0,0,1,4.36,3.13,3,3,0,0,1,1.6-.3,3.16,3.16,0,0,1,2.86,2.38,2.73,2.73,0,0,1-1.51,3,3.45,3.45,0,0,1-2.62-.13l0,.16c-.3,1.26.82,2.08,1.14,3.23a2.56,2.56,0,0,1,0,1.62c-.2.52-.83,1-.89,1.56a2.58,2.58,0,0,0,.41,1.22,5.71,5.71,0,0,1,.45,1.27,12.91,12.91,0,0,1-8.59-.4,14.41,14.41,0,0,1-7.33-5.39,2.14,2.14,0,0,1,.64-.66,8,8,0,0,1,1.63-.58c.81-.33.22-1.75.35-2.46.22-1.21,1.18-1.59,2.24-1.87.77-.2.87-.64,1-1.39a2.83,2.83,0,0,0-.11-1.75,1,1,0,0,1-.61-.22,5.26,5.26,0,0,0-1.13-.7.87.87,0,0,1-.37-1.15A.71.71,0,0,1,224.57,90.27Z" fill="#56403d"></path><path d="M226.88,93.36a13.81,13.81,0,0,1-3.15-1.63c0-.11.27-4.38,7.56-1.87s2.48,11,2.48,11" fill="#56403d"></path><path d="M225.26,100.85s-11.21-1.53-13.7-1.2l-.71,8.46,14.41,8.5" fill="#ffd400"></path></g></g></svg>